<svg width="36" height="36" viewBox="0 0 36 36" fill="none" xmlns="http://www.w3.org/2000/svg">
<path d="M3.70588 34.6176C3.48024 34.6177 3.25832 34.5601 3.06121 34.4503C2.8641 34.3405 2.69833 34.1821 2.57967 33.9901C2.46101 33.7982 2.39337 33.5792 2.38321 33.3537C2.37304 33.1283 2.42068 32.904 2.52159 32.7022L4.91294 27.9206C1.77829 24.9733 0 21.0324 0 16.9591C0 8.15923 8.07485 1 18 1C27.9251 1 36 8.15923 36 16.9591C36 25.759 27.9251 32.9209 18 32.9209C15.3904 32.932 12.8046 32.4251 10.3924 31.4295L4.29777 34.4779C4.11403 34.5699 3.91136 34.6177 3.70588 34.6176ZM18 3.64706C9.53444 3.64706 2.64706 9.61882 2.64706 16.9591C2.64706 20.6271 4.33349 24.0456 7.39614 26.5838C7.62629 26.7746 7.78507 27.0377 7.84664 27.3302C7.90822 27.6227 7.86895 27.9275 7.73523 28.1948L6.66582 30.3336L9.76077 28.7859C9.93697 28.6979 10.1306 28.6503 10.3275 28.6467C10.5244 28.643 10.7197 28.6833 10.899 28.7647C13.1301 29.772 15.5521 30.2867 18 30.2738C26.4656 30.2738 33.3529 24.3007 33.3529 16.9591C33.3529 9.61749 26.4656 3.64706 18 3.64706Z" fill="#C4C4C4"/>
<path d="M3.70588 34.6176C3.48024 34.6177 3.25832 34.5601 3.06121 34.4503C2.8641 34.3405 2.69833 34.1821 2.57967 33.9901C2.46101 33.7982 2.39337 33.5792 2.38321 33.3537C2.37304 33.1283 2.42068 32.904 2.52159 32.7022L4.91294 27.9206C1.77829 24.9733 0 21.0324 0 16.9591C0 8.15923 8.07485 1 18 1C27.9251 1 36 8.15923 36 16.9591C36 25.759 27.9251 32.9209 18 32.9209C15.3904 32.932 12.8046 32.4251 10.3924 31.4295L4.29777 34.4779C4.11403 34.5699 3.91136 34.6177 3.70588 34.6176ZM18 3.64706C9.53444 3.64706 2.64706 9.61882 2.64706 16.9591C2.64706 20.6271 4.33349 24.0456 7.39614 26.5838C7.62629 26.7746 7.78507 27.0377 7.84664 27.3302C7.90822 27.6227 7.86895 27.9275 7.73523 28.1948L6.66582 30.3336L9.76077 28.7859C9.93697 28.6979 10.1306 28.6503 10.3275 28.6467C10.5244 28.643 10.7197 28.6833 10.899 28.7647C13.1301 29.772 15.5521 30.2867 18 30.2738C26.4656 30.2738 33.3529 24.3007 33.3529 16.9591C33.3529 9.61749 26.4656 3.64706 18 3.64706Z" fill="#959595"/>
<path d="M27.5294 13.1765H8.47058C8.11956 13.1765 7.78291 13.037 7.5347 12.7888C7.28649 12.5406 7.14705 12.204 7.14705 11.8529C7.14705 11.5019 7.28649 11.1653 7.5347 10.9171C7.78291 10.6689 8.11956 10.5294 8.47058 10.5294H27.5294C27.8804 10.5294 28.2171 10.6689 28.4653 10.9171C28.7135 11.1653 28.8529 11.5019 28.8529 11.8529C28.8529 12.204 28.7135 12.5406 28.4653 12.7888C28.2171 13.037 27.8804 13.1765 27.5294 13.1765Z" fill="#C4C4C4"/>
<path d="M27.5294 13.1765H8.47058C8.11956 13.1765 7.78291 13.037 7.5347 12.7888C7.28649 12.5406 7.14705 12.204 7.14705 11.8529C7.14705 11.5019 7.28649 11.1653 7.5347 10.9171C7.78291 10.6689 8.11956 10.5294 8.47058 10.5294H27.5294C27.8804 10.5294 28.2171 10.6689 28.4653 10.9171C28.7135 11.1653 28.8529 11.5019 28.8529 11.8529C28.8529 12.204 28.7135 12.5406 28.4653 12.7888C28.2171 13.037 27.8804 13.1765 27.5294 13.1765Z" fill="#959595"/>
<path d="M27.5294 17.9412H8.47058C8.11956 17.9412 7.78291 17.8017 7.5347 17.5535C7.28649 17.3053 7.14705 16.9687 7.14705 16.6177C7.14705 16.2666 7.28649 15.93 7.5347 15.6818C7.78291 15.4336 8.11956 15.2941 8.47058 15.2941H27.5294C27.8804 15.2941 28.2171 15.4336 28.4653 15.6818C28.7135 15.93 28.8529 16.2666 28.8529 16.6177C28.8529 16.9687 28.7135 17.3053 28.4653 17.5535C28.2171 17.8017 27.8804 17.9412 27.5294 17.9412Z" fill="#C4C4C4"/>
<path d="M27.5294 17.9412H8.47058C8.11956 17.9412 7.78291 17.8017 7.5347 17.5535C7.28649 17.3053 7.14705 16.9687 7.14705 16.6177C7.14705 16.2666 7.28649 15.93 7.5347 15.6818C7.78291 15.4336 8.11956 15.2941 8.47058 15.2941H27.5294C27.8804 15.2941 28.2171 15.4336 28.4653 15.6818C28.7135 15.93 28.8529 16.2666 28.8529 16.6177C28.8529 16.9687 28.7135 17.3053 28.4653 17.5535C28.2171 17.8017 27.8804 17.9412 27.5294 17.9412Z" fill="#959595"/>
<path d="M27.5294 22.7059H8.47058C8.11956 22.7059 7.78291 22.5665 7.5347 22.3182C7.28649 22.07 7.14705 21.7334 7.14705 21.3824C7.14705 21.0313 7.28649 20.6947 7.5347 20.4465C7.78291 20.1983 8.11956 20.0588 8.47058 20.0588H27.5294C27.8804 20.0588 28.2171 20.1983 28.4653 20.4465C28.7135 20.6947 28.8529 21.0313 28.8529 21.3824C28.8529 21.7334 28.7135 22.07 28.4653 22.3182C28.2171 22.5665 27.8804 22.7059 27.5294 22.7059Z" fill="#C4C4C4"/>
<path d="M27.5294 22.7059H8.47058C8.11956 22.7059 7.78291 22.5665 7.5347 22.3182C7.28649 22.07 7.14705 21.7334 7.14705 21.3824C7.14705 21.0313 7.28649 20.6947 7.5347 20.4465C7.78291 20.1983 8.11956 20.0588 8.47058 20.0588H27.5294C27.8804 20.0588 28.2171 20.1983 28.4653 20.4465C28.7135 20.6947 28.8529 21.0313 28.8529 21.3824C28.8529 21.7334 28.7135 22.07 28.4653 22.3182C28.2171 22.5665 27.8804 22.7059 27.5294 22.7059Z" fill="#959595"/>
</svg>
