<svg width="36" height="36" viewBox="0 0 36 36" fill="none" xmlns="http://www.w3.org/2000/svg">
<path d="M1.32264 35.9997C1.09222 35.9995 0.86583 35.9392 0.665868 35.8247C0.465906 35.7102 0.299303 35.5455 0.182534 35.3469C0.0657653 35.1482 0.00287824 34.9225 9.64816e-05 34.6921C-0.00268528 34.4617 0.0547296 34.2346 0.166669 34.0332L12.0784 12.592C12.1779 12.4129 12.3176 12.2594 12.4866 12.1434C12.6555 12.0275 12.849 11.9524 13.0519 11.924C13.2548 11.8956 13.4616 11.9147 13.6558 11.9797C13.8501 12.0448 14.0266 12.1541 14.1715 12.299L22.4599 20.5875L31.6161 4.10289C31.7865 3.796 32.0719 3.56938 32.4094 3.47288C32.7469 3.37637 33.109 3.41789 33.4158 3.58831C33.7227 3.75874 33.9494 4.04409 34.0459 4.38161C34.1424 4.71912 34.1008 5.08115 33.9304 5.38805L23.9219 23.4068C23.8224 23.5859 23.6827 23.7395 23.5138 23.8554C23.3448 23.9713 23.1513 24.0465 22.9484 24.0749C22.7455 24.1033 22.5388 24.0842 22.3445 24.0191C22.1502 23.9541 21.9737 23.8448 21.8289 23.6999L13.5404 15.4114L2.48073 35.3173C2.36622 35.5241 2.19842 35.6964 1.99476 35.8164C1.7911 35.9365 1.55903 35.9997 1.32264 35.9997Z" fill="#959595"/>
<path d="M34.6398 2.7079C34.4088 2.70766 34.1818 2.64692 33.9815 2.53173C33.7811 2.41655 33.6145 2.25093 33.498 2.05134C33.3816 1.85175 33.3194 1.62515 33.3177 1.39408C33.316 1.16302 33.3749 0.935535 33.4884 0.734259L33.5228 0.673366C33.6983 0.373798 33.9845 0.155205 34.3197 0.0646911C34.6549 -0.0258233 35.0122 0.0190002 35.3147 0.189499C35.6171 0.359998 35.8405 0.642514 35.9366 0.976152C36.0326 1.30979 35.9938 1.66783 35.8284 1.97308L35.7942 2.03422C35.6789 2.23884 35.5112 2.4091 35.3083 2.52749C35.1054 2.64588 34.8747 2.70815 34.6398 2.7079Z" fill="#959595"/>
<path d="M34.6666 7.14861C34.4368 7.14854 34.2109 7.08879 34.0112 6.97522L30.0999 4.74666C29.8979 4.63168 29.7299 4.46556 29.6125 4.26501C29.4951 4.06446 29.4326 3.83655 29.4313 3.60418C29.43 3.37182 29.4898 3.1432 29.6048 2.9413C29.7199 2.73941 29.886 2.57135 30.0866 2.45404L33.9725 0.181021C34.173 0.0637521 34.4009 0.00133001 34.6332 2.10221e-05C34.8655 -0.00128797 35.094 0.0585552 35.2959 0.173557C35.4977 0.288558 35.6657 0.454657 35.783 0.655161C35.9003 0.855666 35.9628 1.08352 35.9642 1.31581L35.9906 5.81767C35.9916 5.9921 35.9581 6.165 35.892 6.32643C35.8259 6.48787 35.7286 6.63465 35.6056 6.75834C35.4826 6.88203 35.3364 6.98018 35.1753 7.04715C35.0142 7.11413 34.8415 7.14862 34.6671 7.14861H34.6666Z" fill="#959595"/>
</svg>
