<svg width="36" height="36" viewBox="0 0 36 36" fill="none" xmlns="http://www.w3.org/2000/svg">
<path d="M10.8527 28.6896C10.6788 28.6899 10.5066 28.6558 10.346 28.5892C10.1855 28.5226 10.0396 28.425 9.91694 28.3018L0.387526 18.7724C0.139403 18.5242 0 18.1876 0 17.8367C0 17.4857 0.139403 17.1491 0.387526 16.9009L9.91694 7.37153C10.1666 7.13044 10.5009 6.99703 10.8479 7.00005C11.1949 7.00307 11.5269 7.14225 11.7723 7.38764C12.0177 7.63303 12.1569 7.965 12.1599 8.31203C12.1629 8.65905 12.0295 8.99337 11.7884 9.24299L3.19498 17.8367L11.7884 26.4304C11.9734 26.6154 12.0994 26.8512 12.1505 27.108C12.2015 27.3647 12.1753 27.6307 12.0752 27.8725C11.975 28.1143 11.8054 28.321 11.5878 28.4665C11.3702 28.6119 11.1144 28.6896 10.8527 28.6896Z" fill="#C4C4C4"/>
<path d="M10.8527 28.6896C10.6788 28.6899 10.5066 28.6558 10.346 28.5892C10.1855 28.5226 10.0396 28.425 9.91694 28.3018L0.387526 18.7724C0.139403 18.5242 0 18.1876 0 17.8367C0 17.4857 0.139403 17.1491 0.387526 16.9009L9.91694 7.37153C10.1666 7.13044 10.5009 6.99703 10.8479 7.00005C11.1949 7.00307 11.5269 7.14225 11.7723 7.38764C12.0177 7.63303 12.1569 7.965 12.1599 8.31203C12.1629 8.65905 12.0295 8.99337 11.7884 9.24299L3.19498 17.8367L11.7884 26.4304C11.9734 26.6154 12.0994 26.8512 12.1505 27.108C12.2015 27.3647 12.1753 27.6307 12.0752 27.8725C11.975 28.1143 11.8054 28.321 11.5878 28.4665C11.3702 28.6119 11.1144 28.6896 10.8527 28.6896Z" fill="#959595"/>
<path d="M25.1468 28.6896C24.885 28.6896 24.6292 28.6119 24.4116 28.4665C24.194 28.321 24.0244 28.1143 23.9243 27.8725C23.8241 27.6307 23.7979 27.3647 23.8489 27.108C23.9 26.8512 24.026 26.6154 24.211 26.4304L32.8044 17.8367L24.211 9.24299C23.9699 8.99337 23.8365 8.65905 23.8396 8.31203C23.8426 7.965 23.9818 7.63303 24.2272 7.38764C24.4725 7.14225 24.8045 7.00307 25.1515 7.00005C25.4985 6.99703 25.8329 7.13044 26.0825 7.37153L35.6119 16.9009C35.86 17.1491 35.9994 17.4857 35.9994 17.8367C35.9994 18.1876 35.86 18.5242 35.6119 18.7724L26.0825 28.3018C25.9598 28.425 25.814 28.5226 25.6534 28.5892C25.4928 28.6558 25.3206 28.6899 25.1468 28.6896Z" fill="#C4C4C4"/>
<path d="M25.1468 28.6896C24.885 28.6896 24.6292 28.6119 24.4116 28.4665C24.194 28.321 24.0244 28.1143 23.9243 27.8725C23.8241 27.6307 23.7979 27.3647 23.8489 27.108C23.9 26.8512 24.026 26.6154 24.211 26.4304L32.8044 17.8367L24.211 9.24299C23.9699 8.99337 23.8365 8.65905 23.8396 8.31203C23.8426 7.965 23.9818 7.63303 24.2272 7.38764C24.4725 7.14225 24.8045 7.00307 25.1515 7.00005C25.4985 6.99703 25.8329 7.13044 26.0825 7.37153L35.6119 16.9009C35.86 17.1491 35.9994 17.4857 35.9994 17.8367C35.9994 18.1876 35.86 18.5242 35.6119 18.7724L26.0825 28.3018C25.9598 28.425 25.814 28.5226 25.6534 28.5892C25.4928 28.6558 25.3206 28.6899 25.1468 28.6896Z" fill="#959595"/>
<path d="M25.1468 19.1602H10.8527C10.5016 19.1602 10.165 19.0207 9.91678 18.7725C9.66857 18.5243 9.52913 18.1877 9.52913 17.8367C9.52913 17.4856 9.66857 17.149 9.91678 16.9008C10.165 16.6526 10.5016 16.5131 10.8527 16.5131H25.1468C25.4978 16.5131 25.8344 16.6526 26.0826 16.9008C26.3309 17.149 26.4703 17.4856 26.4703 17.8367C26.4703 18.1877 26.3309 18.5243 26.0826 18.7725C25.8344 19.0207 25.4978 19.1602 25.1468 19.1602Z" fill="#C4C4C4"/>
<path d="M25.1468 19.1602H10.8527C10.5016 19.1602 10.165 19.0207 9.91678 18.7725C9.66857 18.5243 9.52913 18.1877 9.52913 17.8367C9.52913 17.4856 9.66857 17.149 9.91678 16.9008C10.165 16.6526 10.5016 16.5131 10.8527 16.5131H25.1468C25.4978 16.5131 25.8344 16.6526 26.0826 16.9008C26.3309 17.149 26.4703 17.4856 26.4703 17.8367C26.4703 18.1877 26.3309 18.5243 26.0826 18.7725C25.8344 19.0207 25.4978 19.1602 25.1468 19.1602Z" fill="#959595"/>
</svg>
