<svg width="36" height="36" viewBox="0 0 36 36" fill="none" xmlns="http://www.w3.org/2000/svg">
<path d="M17.9996 36C16.4508 36.001 14.9083 35.8021 13.4103 35.4083C13.218 35.3576 13.0396 35.2642 12.8883 35.135C12.7371 35.0058 12.6169 34.8443 12.5367 34.6623L10.7364 30.5776L6.30172 31.0602C6.10387 31.0814 5.90376 31.0579 5.7162 30.9915C5.52864 30.925 5.35843 30.8172 5.21814 30.676C3.02846 28.4669 1.44684 25.7294 0.626716 22.729C0.574501 22.537 0.566242 22.3357 0.602543 22.1401C0.638844 21.9445 0.718778 21.7596 0.836397 21.5991L3.47455 17.9986L0.836397 14.3981C0.718778 14.2376 0.638844 14.0527 0.602543 13.8571C0.566242 13.6615 0.574501 13.4602 0.626716 13.2682C1.44684 10.2678 3.02846 7.5303 5.21814 5.32118C5.35825 5.1798 5.52844 5.07184 5.71605 5.00533C5.90366 4.93882 6.10385 4.91548 6.30172 4.93704L10.7364 5.41967L12.5367 1.33496C12.6169 1.15296 12.7371 0.991383 12.8883 0.862224C13.0396 0.733065 13.218 0.639647 13.4103 0.588918C16.4195 -0.196306 19.5798 -0.196306 22.5889 0.588918C22.7812 0.639647 22.9596 0.733065 23.1109 0.862224C23.2621 0.991383 23.3823 1.15296 23.4626 1.33496L25.2628 5.41967L29.6975 4.93704C29.8954 4.91569 30.0955 4.93914 30.2831 5.00563C30.4706 5.07213 30.6408 5.17997 30.7811 5.32118C32.9708 7.5303 34.5524 10.2678 35.3725 13.2682C35.4247 13.4602 35.433 13.6615 35.3967 13.8571C35.3604 14.0527 35.2804 14.2376 35.1628 14.3981L32.5255 17.9976L35.1636 21.598C35.2812 21.7585 35.3612 21.9434 35.3975 22.1391C35.4338 22.3347 35.4255 22.536 35.3733 22.728C34.5532 25.7283 32.9716 28.4659 30.7819 30.675C30.6415 30.8161 30.4713 30.9238 30.2838 30.9903C30.0962 31.0568 29.8961 31.0803 29.6983 31.0591L25.2636 30.5765L23.4633 34.6612C23.3831 34.8432 23.2629 35.0048 23.1117 35.1339C22.9604 35.2631 22.782 35.3565 22.5897 35.4072C21.0915 35.8014 19.5488 36.0007 17.9996 36ZM14.6951 32.9954C16.8726 33.4696 19.1266 33.4696 21.3041 32.9954L23.2322 28.6224C23.346 28.3654 23.5384 28.1511 23.7819 28.0106C24.0254 27.8701 24.3072 27.8106 24.5867 27.8407L29.334 28.3574C30.8373 26.712 31.9657 24.76 32.6414 22.6361L29.8166 18.7799C29.6503 18.5529 29.5607 18.2789 29.5607 17.9976C29.5607 17.7162 29.6503 17.4422 29.8166 17.2152L32.6414 13.359C31.9657 11.2351 30.8373 9.28313 29.334 7.63767L24.5867 8.15445C24.3071 8.18489 24.0252 8.12551 23.7816 7.98495C23.5381 7.84439 23.3457 7.62994 23.2322 7.37267L21.3041 2.99966C19.1266 2.52551 16.8726 2.52551 14.6951 2.99966L12.767 7.37267C12.6535 7.62994 12.4611 7.84439 12.2176 7.98495C11.974 8.12551 11.6921 8.18489 11.4126 8.15445L6.66522 7.63767C5.16192 9.28313 4.0335 11.2351 3.3578 13.359L6.18259 17.2152C6.34887 17.4422 6.4385 17.7162 6.4385 17.9976C6.4385 18.2789 6.34887 18.5529 6.18259 18.7799L3.3578 22.6361C4.0335 24.76 5.16192 26.712 6.66522 28.3574L11.4126 27.8407C11.692 27.8106 11.9738 27.8702 12.2172 28.0107C12.4607 28.1512 12.6532 28.3654 12.767 28.6224L14.6951 32.9954Z" fill="#C4C4C4"/>
<path d="M17.9996 36C16.4508 36.001 14.9083 35.8021 13.4103 35.4083C13.218 35.3576 13.0396 35.2642 12.8883 35.135C12.7371 35.0058 12.6169 34.8443 12.5367 34.6623L10.7364 30.5776L6.30172 31.0602C6.10387 31.0814 5.90376 31.0579 5.7162 30.9915C5.52864 30.925 5.35843 30.8172 5.21814 30.676C3.02846 28.4669 1.44684 25.7294 0.626716 22.729C0.574501 22.537 0.566242 22.3357 0.602543 22.1401C0.638844 21.9445 0.718778 21.7596 0.836397 21.5991L3.47455 17.9986L0.836397 14.3981C0.718778 14.2376 0.638844 14.0527 0.602543 13.8571C0.566242 13.6615 0.574501 13.4602 0.626716 13.2682C1.44684 10.2678 3.02846 7.5303 5.21814 5.32118C5.35825 5.1798 5.52844 5.07184 5.71605 5.00533C5.90366 4.93882 6.10385 4.91548 6.30172 4.93704L10.7364 5.41967L12.5367 1.33496C12.6169 1.15296 12.7371 0.991383 12.8883 0.862224C13.0396 0.733065 13.218 0.639647 13.4103 0.588918C16.4195 -0.196306 19.5798 -0.196306 22.5889 0.588918C22.7812 0.639647 22.9596 0.733065 23.1109 0.862224C23.2621 0.991383 23.3823 1.15296 23.4626 1.33496L25.2628 5.41967L29.6975 4.93704C29.8954 4.91569 30.0955 4.93914 30.2831 5.00563C30.4706 5.07213 30.6408 5.17997 30.7811 5.32118C32.9708 7.5303 34.5524 10.2678 35.3725 13.2682C35.4247 13.4602 35.433 13.6615 35.3967 13.8571C35.3604 14.0527 35.2804 14.2376 35.1628 14.3981L32.5255 17.9976L35.1636 21.598C35.2812 21.7585 35.3612 21.9434 35.3975 22.1391C35.4338 22.3347 35.4255 22.536 35.3733 22.728C34.5532 25.7283 32.9716 28.4659 30.7819 30.675C30.6415 30.8161 30.4713 30.9238 30.2838 30.9903C30.0962 31.0568 29.8961 31.0803 29.6983 31.0591L25.2636 30.5765L23.4633 34.6612C23.3831 34.8432 23.2629 35.0048 23.1117 35.1339C22.9604 35.2631 22.782 35.3565 22.5897 35.4072C21.0915 35.8014 19.5488 36.0007 17.9996 36ZM14.6951 32.9954C16.8726 33.4696 19.1266 33.4696 21.3041 32.9954L23.2322 28.6224C23.346 28.3654 23.5384 28.1511 23.7819 28.0106C24.0254 27.8701 24.3072 27.8106 24.5867 27.8407L29.334 28.3574C30.8373 26.712 31.9657 24.76 32.6414 22.6361L29.8166 18.7799C29.6503 18.5529 29.5607 18.2789 29.5607 17.9976C29.5607 17.7162 29.6503 17.4422 29.8166 17.2152L32.6414 13.359C31.9657 11.2351 30.8373 9.28313 29.334 7.63767L24.5867 8.15445C24.3071 8.18489 24.0252 8.12551 23.7816 7.98495C23.5381 7.84439 23.3457 7.62994 23.2322 7.37267L21.3041 2.99966C19.1266 2.52551 16.8726 2.52551 14.6951 2.99966L12.767 7.37267C12.6535 7.62994 12.4611 7.84439 12.2176 7.98495C11.974 8.12551 11.6921 8.18489 11.4126 8.15445L6.66522 7.63767C5.16192 9.28313 4.0335 11.2351 3.3578 13.359L6.18259 17.2152C6.34887 17.4422 6.4385 17.7162 6.4385 17.9976C6.4385 18.2789 6.34887 18.5529 6.18259 18.7799L3.3578 22.6361C4.0335 24.76 5.16192 26.712 6.66522 28.3574L11.4126 27.8407C11.692 27.8106 11.9738 27.8702 12.2172 28.0107C12.4607 28.1512 12.6532 28.3654 12.767 28.6224L14.6951 32.9954Z" fill="#959595"/>
<path d="M17.9996 26.4693C16.324 26.4693 14.6861 25.9724 13.2929 25.0416C11.8997 24.1107 10.8139 22.7876 10.1727 21.2396C9.53149 19.6915 9.36372 17.9882 9.6906 16.3448C10.0175 14.7014 10.8243 13.1919 12.0091 12.0071C13.1939 10.8223 14.7034 10.0155 16.3468 9.6886C17.9902 9.36172 19.6935 9.52949 21.2416 10.1707C22.7896 10.8119 24.1127 11.8977 25.0436 13.2909C25.9744 14.6841 26.4713 16.322 26.4713 17.9976C26.4688 20.2436 25.5754 22.397 23.9872 23.9852C22.399 25.5734 20.2456 26.4668 17.9996 26.4693ZM17.9996 12.1732C16.8476 12.1732 15.7215 12.5148 14.7637 13.1548C13.8059 13.7948 13.0594 14.7044 12.6186 15.7687C12.1778 16.833 12.0624 18.004 12.2872 19.1338C12.5119 20.2636 13.0666 21.3014 13.8811 22.116C14.6957 22.9305 15.7335 23.4852 16.8633 23.71C17.9931 23.9347 19.1642 23.8194 20.2284 23.3785C21.2927 22.9377 22.2023 22.1912 22.8423 21.2334C23.4823 20.2756 23.8239 19.1495 23.8239 17.9976C23.8221 16.4534 23.2079 14.973 22.116 13.8811C21.0241 12.7892 19.5437 12.175 17.9996 12.1732Z" fill="#C4C4C4"/>
<path d="M17.9996 26.4693C16.324 26.4693 14.6861 25.9724 13.2929 25.0416C11.8997 24.1107 10.8139 22.7876 10.1727 21.2396C9.53149 19.6915 9.36372 17.9882 9.6906 16.3448C10.0175 14.7014 10.8243 13.1919 12.0091 12.0071C13.1939 10.8223 14.7034 10.0155 16.3468 9.6886C17.9902 9.36172 19.6935 9.52949 21.2416 10.1707C22.7896 10.8119 24.1127 11.8977 25.0436 13.2909C25.9744 14.6841 26.4713 16.322 26.4713 17.9976C26.4688 20.2436 25.5754 22.397 23.9872 23.9852C22.399 25.5734 20.2456 26.4668 17.9996 26.4693ZM17.9996 12.1732C16.8476 12.1732 15.7215 12.5148 14.7637 13.1548C13.8059 13.7948 13.0594 14.7044 12.6186 15.7687C12.1778 16.833 12.0624 18.004 12.2872 19.1338C12.5119 20.2636 13.0666 21.3014 13.8811 22.116C14.6957 22.9305 15.7335 23.4852 16.8633 23.71C17.9931 23.9347 19.1642 23.8194 20.2284 23.3785C21.2927 22.9377 22.2023 22.1912 22.8423 21.2334C23.4823 20.2756 23.8239 19.1495 23.8239 17.9976C23.8221 16.4534 23.2079 14.973 22.116 13.8811C21.0241 12.7892 19.5437 12.175 17.9996 12.1732Z" fill="#959595"/>
<path d="M17.9996 36C16.4508 36.001 14.9083 35.8021 13.4103 35.4083C13.218 35.3576 13.0396 35.2642 12.8883 35.135C12.7371 35.0058 12.6169 34.8443 12.5367 34.6623L10.7364 30.5776L6.30172 31.0602C6.10387 31.0814 5.90376 31.0579 5.7162 30.9915C5.52864 30.925 5.35843 30.8172 5.21814 30.676C3.02846 28.4669 1.44684 25.7294 0.626716 22.729C0.574501 22.537 0.566242 22.3357 0.602543 22.1401C0.638844 21.9445 0.718778 21.7596 0.836397 21.5991L3.47455 17.9986L0.836397 14.3981C0.718778 14.2376 0.638844 14.0527 0.602543 13.8571C0.566242 13.6615 0.574501 13.4602 0.626716 13.2682C1.44684 10.2678 3.02846 7.5303 5.21814 5.32118C5.35825 5.1798 5.52844 5.07184 5.71605 5.00533C5.90366 4.93882 6.10385 4.91548 6.30172 4.93704L10.7364 5.41967L12.5367 1.33496C12.6169 1.15296 12.7371 0.991383 12.8883 0.862224C13.0396 0.733065 13.218 0.639647 13.4103 0.588918C16.4195 -0.196306 19.5798 -0.196306 22.5889 0.588918C22.7812 0.639647 22.9596 0.733065 23.1109 0.862224C23.2621 0.991383 23.3823 1.15296 23.4626 1.33496L25.2628 5.41967L29.6975 4.93704C29.8954 4.91569 30.0955 4.93914 30.2831 5.00563C30.4706 5.07213 30.6408 5.17997 30.7811 5.32118C32.9708 7.5303 34.5524 10.2678 35.3725 13.2682C35.4247 13.4602 35.433 13.6615 35.3967 13.8571C35.3604 14.0527 35.2804 14.2376 35.1628 14.3981L32.5255 17.9976L35.1636 21.598C35.2812 21.7585 35.3612 21.9434 35.3975 22.1391C35.4338 22.3347 35.4255 22.536 35.3733 22.728C34.5532 25.7283 32.9716 28.4659 30.7819 30.675C30.6415 30.8161 30.4713 30.9238 30.2838 30.9903C30.0962 31.0568 29.8961 31.0803 29.6983 31.0591L25.2636 30.5765L23.4633 34.6612C23.3831 34.8432 23.2629 35.0048 23.1117 35.1339C22.9604 35.2631 22.782 35.3565 22.5897 35.4072C21.0915 35.8014 19.5488 36.0007 17.9996 36ZM14.6951 32.9954C16.8726 33.4696 19.1266 33.4696 21.3041 32.9954L23.2322 28.6224C23.346 28.3654 23.5384 28.1511 23.7819 28.0106C24.0254 27.8701 24.3072 27.8106 24.5867 27.8407L29.334 28.3574C30.8373 26.712 31.9657 24.76 32.6414 22.6361L29.8166 18.7799C29.6503 18.5529 29.5607 18.2789 29.5607 17.9976C29.5607 17.7162 29.6503 17.4422 29.8166 17.2152L32.6414 13.359C31.9657 11.2351 30.8373 9.28313 29.334 7.63767L24.5867 8.15445C24.3071 8.18489 24.0252 8.12551 23.7816 7.98495C23.5381 7.84439 23.3457 7.62994 23.2322 7.37267L21.3041 2.99966C19.1266 2.52551 16.8726 2.52551 14.6951 2.99966L12.767 7.37267C12.6535 7.62994 12.4611 7.84439 12.2176 7.98495C11.974 8.12551 11.6921 8.18489 11.4126 8.15445L6.66522 7.63767C5.16192 9.28313 4.0335 11.2351 3.3578 13.359L6.18259 17.2152C6.34887 17.4422 6.4385 17.7162 6.4385 17.9976C6.4385 18.2789 6.34887 18.5529 6.18259 18.7799L3.3578 22.6361C4.0335 24.76 5.16192 26.712 6.66522 28.3574L11.4126 27.8407C11.692 27.8106 11.9738 27.8702 12.2172 28.0107C12.4607 28.1512 12.6532 28.3654 12.767 28.6224L14.6951 32.9954Z" fill="#C4C4C4"/>
<path d="M17.9996 36C16.4508 36.001 14.9083 35.8021 13.4103 35.4083C13.218 35.3576 13.0396 35.2642 12.8883 35.135C12.7371 35.0058 12.6169 34.8443 12.5367 34.6623L10.7364 30.5776L6.30172 31.0602C6.10387 31.0814 5.90376 31.0579 5.7162 30.9915C5.52864 30.925 5.35843 30.8172 5.21814 30.676C3.02846 28.4669 1.44684 25.7294 0.626716 22.729C0.574501 22.537 0.566242 22.3357 0.602543 22.1401C0.638844 21.9445 0.718778 21.7596 0.836397 21.5991L3.47455 17.9986L0.836397 14.3981C0.718778 14.2376 0.638844 14.0527 0.602543 13.8571C0.566242 13.6615 0.574501 13.4602 0.626716 13.2682C1.44684 10.2678 3.02846 7.5303 5.21814 5.32118C5.35825 5.1798 5.52844 5.07184 5.71605 5.00533C5.90366 4.93882 6.10385 4.91548 6.30172 4.93704L10.7364 5.41967L12.5367 1.33496C12.6169 1.15296 12.7371 0.991383 12.8883 0.862224C13.0396 0.733065 13.218 0.639647 13.4103 0.588918C16.4195 -0.196306 19.5798 -0.196306 22.5889 0.588918C22.7812 0.639647 22.9596 0.733065 23.1109 0.862224C23.2621 0.991383 23.3823 1.15296 23.4626 1.33496L25.2628 5.41967L29.6975 4.93704C29.8954 4.91569 30.0955 4.93914 30.2831 5.00563C30.4706 5.07213 30.6408 5.17997 30.7811 5.32118C32.9708 7.5303 34.5524 10.2678 35.3725 13.2682C35.4247 13.4602 35.433 13.6615 35.3967 13.8571C35.3604 14.0527 35.2804 14.2376 35.1628 14.3981L32.5255 17.9976L35.1636 21.598C35.2812 21.7585 35.3612 21.9434 35.3975 22.1391C35.4338 22.3347 35.4255 22.536 35.3733 22.728C34.5532 25.7283 32.9716 28.4659 30.7819 30.675C30.6415 30.8161 30.4713 30.9238 30.2838 30.9903C30.0962 31.0568 29.8961 31.0803 29.6983 31.0591L25.2636 30.5765L23.4633 34.6612C23.3831 34.8432 23.2629 35.0048 23.1117 35.1339C22.9604 35.2631 22.782 35.3565 22.5897 35.4072C21.0915 35.8014 19.5488 36.0007 17.9996 36ZM14.6951 32.9954C16.8726 33.4696 19.1266 33.4696 21.3041 32.9954L23.2322 28.6224C23.346 28.3654 23.5384 28.1511 23.7819 28.0106C24.0254 27.8701 24.3072 27.8106 24.5867 27.8407L29.334 28.3574C30.8373 26.712 31.9657 24.76 32.6414 22.6361L29.8166 18.7799C29.6503 18.5529 29.5607 18.2789 29.5607 17.9976C29.5607 17.7162 29.6503 17.4422 29.8166 17.2152L32.6414 13.359C31.9657 11.2351 30.8373 9.28313 29.334 7.63767L24.5867 8.15445C24.3071 8.18489 24.0252 8.12551 23.7816 7.98495C23.5381 7.84439 23.3457 7.62994 23.2322 7.37267L21.3041 2.99966C19.1266 2.52551 16.8726 2.52551 14.6951 2.99966L12.767 7.37267C12.6535 7.62994 12.4611 7.84439 12.2176 7.98495C11.974 8.12551 11.6921 8.18489 11.4126 8.15445L6.66522 7.63767C5.16192 9.28313 4.0335 11.2351 3.3578 13.359L6.18259 17.2152C6.34887 17.4422 6.4385 17.7162 6.4385 17.9976C6.4385 18.2789 6.34887 18.5529 6.18259 18.7799L3.3578 22.6361C4.0335 24.76 5.16192 26.712 6.66522 28.3574L11.4126 27.8407C11.692 27.8106 11.9738 27.8702 12.2172 28.0107C12.4607 28.1512 12.6532 28.3654 12.767 28.6224L14.6951 32.9954Z" fill="#959595"/>
</svg>
