<svg width="175" height="107" viewBox="0 0 175 107" fill="none" xmlns="http://www.w3.org/2000/svg">
<path d="M85.1 12.1V82.9H63V47.6L52.1 82.9H33.1L22.2 47.6V82.9H0V12.1H27.2L42.8 54.6L58 12.1H85.1Z" fill="#00BEB3"/>
<path d="M99.3172 22C95.4505 22 92.3505 20.9667 90.0172 18.9C87.6839 16.8333 86.5172 14.2333 86.5172 11.1C86.5172 7.9 87.6839 5.26667 90.0172 3.2C92.3505 1.06667 95.4505 0 99.3172 0C103.117 0 106.184 1.06667 108.517 3.2C110.851 5.26667 112.017 7.9 112.017 11.1C112.017 14.2333 110.851 16.8333 108.517 18.9C106.184 20.9667 103.117 22 99.3172 22ZM110.317 26.5V82.9H88.1172V26.5H110.317Z" fill="#00BEB3"/>
<path d="M160.744 46.6C165.01 47.6 168.31 49.6667 170.644 52.8C173.044 55.8667 174.244 59.4333 174.244 63.5C174.244 69.7 172.177 74.5 168.044 77.9C163.977 81.2333 158.11 82.9 150.444 82.9H113.344V12.1H149.444C156.644 12.1 162.31 13.6667 166.444 16.8C170.577 19.9333 172.644 24.5 172.644 30.5C172.644 34.6333 171.544 38.1333 169.344 41C167.21 43.8 164.344 45.6667 160.744 46.6ZM135.544 39.7H144.144C146.144 39.7 147.61 39.3 148.544 38.5C149.544 37.7 150.044 36.4667 150.044 34.8C150.044 33.0667 149.544 31.8 148.544 31C147.61 30.1333 146.144 29.7 144.144 29.7H135.544V39.7ZM145.644 65.1C147.644 65.1 149.11 64.7333 150.044 64C151.044 63.2 151.544 61.9333 151.544 60.2C151.544 56.8 149.577 55.1 145.644 55.1H135.544V65.1H145.644Z" fill="#00BEB3"/>
<path d="M49.0467 96.072V105.9H46.6527V100.006L44.4548 105.9H42.5227L40.3107 99.992V105.9H37.9167V96.072H40.7447L43.5027 102.876L46.2327 96.072H49.0467Z" fill="#00BEB3"/>
<path d="M51.9723 97.276C51.5523 97.276 51.207 97.1547 50.9363 96.912C50.675 96.66 50.5443 96.352 50.5443 95.988C50.5443 95.6147 50.675 95.3067 50.9363 95.064C51.207 94.812 51.5523 94.686 51.9723 94.686C52.383 94.686 52.719 94.812 52.9803 95.064C53.251 95.3067 53.3863 95.6147 53.3863 95.988C53.3863 96.352 53.251 96.66 52.9803 96.912C52.719 97.1547 52.383 97.276 51.9723 97.276ZM53.1623 98.088V105.9H50.7683V98.088H53.1623Z" fill="#00BEB3"/>
<path d="M54.4212 101.994C54.4212 101.182 54.5846 100.473 54.9112 99.866C55.2472 99.2594 55.7092 98.7927 56.2972 98.466C56.8946 98.1394 57.5759 97.976 58.3412 97.976C59.3212 97.976 60.1379 98.2327 60.7912 98.746C61.4539 99.2594 61.8879 99.9827 62.0932 100.916H59.5452C59.3305 100.319 58.9152 100.02 58.2992 100.02C57.8605 100.02 57.5106 100.193 57.2492 100.538C56.9879 100.874 56.8572 101.359 56.8572 101.994C56.8572 102.629 56.9879 103.119 57.2492 103.464C57.5106 103.8 57.8605 103.968 58.2992 103.968C58.9152 103.968 59.3305 103.669 59.5452 103.072H62.0932C61.8879 103.987 61.4539 104.705 60.7912 105.228C60.1286 105.751 59.3119 106.012 58.3412 106.012C57.5759 106.012 56.8946 105.849 56.2972 105.522C55.7092 105.195 55.2472 104.729 54.9112 104.122C54.5846 103.515 54.4212 102.806 54.4212 101.994Z" fill="#00BEB3"/>
<path d="M65.7678 99.488C66.0478 99.0307 66.3978 98.6714 66.8178 98.41C67.2471 98.1394 67.7138 98.004 68.2178 98.004V100.538H67.5598C66.9624 100.538 66.5144 100.669 66.2158 100.93C65.9171 101.182 65.7678 101.63 65.7678 102.274V105.9H63.3738V98.088H65.7678V99.488Z" fill="#00BEB3"/>
<path d="M72.9181 106.012C72.1527 106.012 71.4621 105.849 70.8461 105.522C70.2394 105.195 69.7587 104.729 69.4041 104.122C69.0587 103.515 68.8861 102.806 68.8861 101.994C68.8861 101.191 69.0634 100.487 69.4181 99.88C69.7727 99.264 70.2581 98.7927 70.8741 98.466C71.4901 98.1394 72.1807 97.976 72.9461 97.976C73.7114 97.976 74.4021 98.1394 75.0181 98.466C75.6341 98.7927 76.1194 99.264 76.4741 99.88C76.8287 100.487 77.0061 101.191 77.0061 101.994C77.0061 102.797 76.8241 103.506 76.4601 104.122C76.1054 104.729 75.6154 105.195 74.9901 105.522C74.3741 105.849 73.6834 106.012 72.9181 106.012ZM72.9181 103.954C73.3754 103.954 73.7627 103.786 74.0801 103.45C74.4067 103.105 74.5701 102.619 74.5701 101.994C74.5701 101.369 74.4114 100.888 74.0941 100.552C73.7861 100.207 73.4034 100.034 72.9461 100.034C72.4794 100.034 72.0921 100.202 71.7841 100.538C71.4761 100.874 71.3221 101.359 71.3221 101.994C71.3221 102.619 71.4714 103.105 71.7701 103.45C72.0781 103.786 72.4607 103.954 72.9181 103.954Z" fill="#00BEB3"/>
<path d="M84.2261 100.86C84.7955 100.981 85.2528 101.266 85.5981 101.714C85.9435 102.153 86.1161 102.657 86.1161 103.226C86.1161 104.047 85.8268 104.701 85.2481 105.186C84.6788 105.662 83.8808 105.9 82.8541 105.9H78.2761V96.072H82.7001C83.6988 96.072 84.4781 96.3007 85.0381 96.758C85.6075 97.2154 85.8921 97.836 85.8921 98.62C85.8921 99.1987 85.7381 99.6794 85.4301 100.062C85.1315 100.445 84.7301 100.711 84.2261 100.86ZM80.6701 100.062H82.2381C82.6301 100.062 82.9288 99.9734 83.1341 99.796C83.3488 99.6187 83.4561 99.362 83.4561 99.026C83.4561 98.6807 83.3488 98.4194 83.1341 98.242C82.9288 98.0554 82.6301 97.962 82.2381 97.962H80.6701V100.062ZM82.4341 103.996C82.8355 103.996 83.1435 103.903 83.3581 103.716C83.5821 103.529 83.6941 103.259 83.6941 102.904C83.6941 102.559 83.5775 102.288 83.3441 102.092C83.1201 101.887 82.8075 101.784 82.4061 101.784H80.6701V103.996H82.4341Z" fill="#00BEB3"/>
<path d="M91.0606 106.012C90.2953 106.012 89.6046 105.849 88.9886 105.522C88.382 105.195 87.9013 104.729 87.5466 104.122C87.2013 103.515 87.0286 102.806 87.0286 101.994C87.0286 101.191 87.206 100.487 87.5606 99.88C87.9153 99.264 88.4006 98.7927 89.0166 98.466C89.6326 98.1394 90.3233 97.976 91.0886 97.976C91.854 97.976 92.5446 98.1394 93.1606 98.466C93.7766 98.7927 94.262 99.264 94.6166 99.88C94.9713 100.487 95.1486 101.191 95.1486 101.994C95.1486 102.797 94.9666 103.506 94.6026 104.122C94.248 104.729 93.758 105.195 93.1326 105.522C92.5166 105.849 91.826 106.012 91.0606 106.012ZM91.0606 103.954C91.518 103.954 91.9053 103.786 92.2226 103.45C92.5493 103.105 92.7126 102.619 92.7126 101.994C92.7126 101.369 92.554 100.888 92.2366 100.552C91.9286 100.207 91.546 100.034 91.0886 100.034C90.622 100.034 90.2346 100.202 89.9266 100.538C89.6186 100.874 89.4646 101.359 89.4646 101.994C89.4646 102.619 89.614 103.105 89.9126 103.45C90.2206 103.786 90.6033 103.954 91.0606 103.954Z" fill="#00BEB3"/>
<path d="M100.773 103.87V105.9H99.5547C98.6867 105.9 98.01 105.69 97.5247 105.27C97.0394 104.841 96.7967 104.145 96.7967 103.184V100.076H95.8447V98.088H96.7967V96.184H99.1907V98.088H100.759V100.076H99.1907V103.212C99.1907 103.445 99.2467 103.613 99.3587 103.716C99.4707 103.819 99.6574 103.87 99.9187 103.87H100.773Z" fill="#00BEB3"/>
<path d="M113.858 96.072V105.9H111.464V101.826H107.74V105.9H105.346V96.072H107.74V99.936H111.464V96.072H113.858Z" fill="#00BEB3"/>
<path d="M123.301 98.088V105.9H120.907V104.836C120.664 105.181 120.333 105.461 119.913 105.676C119.502 105.881 119.045 105.984 118.541 105.984C117.943 105.984 117.416 105.853 116.959 105.592C116.501 105.321 116.147 104.934 115.895 104.43C115.643 103.926 115.517 103.333 115.517 102.652V98.088H117.897V102.33C117.897 102.853 118.032 103.259 118.303 103.548C118.573 103.837 118.937 103.982 119.395 103.982C119.861 103.982 120.23 103.837 120.501 103.548C120.771 103.259 120.907 102.853 120.907 102.33V98.088H123.301Z" fill="#00BEB3"/>
<path d="M127.414 99.194C127.638 98.83 127.96 98.536 128.38 98.312C128.8 98.088 129.281 97.976 129.822 97.976C130.466 97.976 131.05 98.1394 131.572 98.466C132.095 98.7927 132.506 99.2594 132.804 99.866C133.112 100.473 133.266 101.177 133.266 101.98C133.266 102.783 133.112 103.492 132.804 104.108C132.506 104.715 132.095 105.186 131.572 105.522C131.05 105.849 130.466 106.012 129.822 106.012C129.272 106.012 128.791 105.905 128.38 105.69C127.97 105.466 127.648 105.172 127.414 104.808V105.9H125.02V95.54H127.414V99.194ZM130.83 101.98C130.83 101.383 130.662 100.916 130.326 100.58C130 100.235 129.594 100.062 129.108 100.062C128.632 100.062 128.226 100.235 127.89 100.58C127.564 100.925 127.4 101.397 127.4 101.994C127.4 102.591 127.564 103.063 127.89 103.408C128.226 103.753 128.632 103.926 129.108 103.926C129.584 103.926 129.99 103.753 130.326 103.408C130.662 103.053 130.83 102.577 130.83 101.98Z" fill="#00BEB3"/>
</svg>
