<svg width="52" height="25" viewBox="0 0 52 25" fill="none" xmlns="http://www.w3.org/2000/svg">
<path d="M25.282 4.46799V25H18.873V14.763L15.712 25H10.202L7.04104 14.763V25H0.603043V4.46799H8.49104L13.015 16.793L17.423 4.46799H25.282Z" fill="white"/>
<path d="M29.405 7.33898C28.2837 7.33898 27.3847 7.03932 26.708 6.43998C26.0314 5.84065 25.693 5.08665 25.693 4.17798C25.693 3.24999 26.0314 2.48632 26.708 1.88698C27.3847 1.26832 28.2837 0.958984 29.405 0.958984C30.507 0.958984 31.3964 1.26832 32.073 1.88698C32.7497 2.48632 33.088 3.24999 33.088 4.17798C33.088 5.08665 32.7497 5.84065 32.073 6.43998C31.3964 7.03932 30.507 7.33898 29.405 7.33898ZM32.595 8.64399V25H26.157V8.64399H32.595Z" fill="white"/>
<path d="M47.2187 14.473C48.4561 14.763 49.4131 15.3623 50.0897 16.271C50.7857 17.1603 51.1337 18.1947 51.1337 19.374C51.1337 21.172 50.5344 22.564 49.3357 23.55C48.1564 24.5167 46.4551 25 44.2317 25H33.4727V4.46799H43.9417C46.0297 4.46799 47.6731 4.92232 48.8717 5.83099C50.0704 6.73965 50.6697 8.06399 50.6697 9.80399C50.6697 11.0027 50.3507 12.0177 49.7127 12.849C49.0941 13.661 48.2627 14.2023 47.2187 14.473ZM39.9107 12.472H42.4047C42.9847 12.472 43.4101 12.356 43.6807 12.124C43.9707 11.892 44.1157 11.5343 44.1157 11.051C44.1157 10.5483 43.9707 10.181 43.6807 9.94898C43.4101 9.69765 42.9847 9.57199 42.4047 9.57199H39.9107V12.472ZM42.8397 19.838C43.4197 19.838 43.8451 19.7317 44.1157 19.519C44.4057 19.287 44.5507 18.9197 44.5507 18.417C44.5507 17.431 43.9804 16.938 42.8397 16.938H39.9107V19.838H42.8397Z" fill="white"/>
</svg>
